<svg xmlns="http://www.w3.org/2000/svg">
   <symbol id="share" viewBox="0 0 24 24">
      <path d="M18,16.08C17.24,16.08 16.56,16.38 16.04,16.85L8.91,12.7C8.96,12.47 9,12.24 9,12C9,11.76 8.96,11.53 8.91,11.3L15.96,7.19C16.5,7.69 17.21,8 18,8A3,3 0 0,0 21,5A3,3 0 0,0 18,2A3,3 0 0,0 15,5C15,5.24 15.04,5.47 15.09,5.7L8.04,9.81C7.5,9.31 6.79,9 6,9A3,3 0 0,0 3,12A3,3 0 0,0 6,15C6.79,15 7.5,14.69 8.04,14.19L15.16,18.34C15.11,18.55 15.08,18.77 15.08,19C15.08,20.61 16.39,21.91 18,21.91C19.61,21.91 20.92,20.61 20.92,19A2.92,2.92 0 0,0 18,16.08Z" />
   </symbol>
   <symbol id="instagram" viewBox="0 0 24 24">
      <path d="M7.8,2H16.2C19.4,2 22,4.6 22,7.8V16.2A5.8,5.8 0 0,1 16.2,22H7.8C4.6,22 2,19.4 2,16.2V7.8A5.8,5.8 0 0,1 7.8,2M7.6,4A3.6,3.6 0 0,0 4,7.6V16.4C4,18.39 5.61,20 7.6,20H16.4A3.6,3.6 0 0,0 20,16.4V7.6C20,5.61 18.39,4 16.4,4H7.6M17.25,5.5A1.25,1.25 0 0,1 18.5,6.75A1.25,1.25 0 0,1 17.25,8A1.25,1.25 0 0,1 16,6.75A1.25,1.25 0 0,1 17.25,5.5M12,7A5,5 0 0,1 17,12A5,5 0 0,1 12,17A5,5 0 0,1 7,12A5,5 0 0,1 12,7M12,9A3,3 0 0,0 9,12A3,3 0 0,0 12,15A3,3 0 0,0 15,12A3,3 0 0,0 12,9Z" />
   </symbol>
   <symbol id="facebook" viewBox="0 0 24 24">
      <path d="M17,2V2H17V6H15C14.31,6 14,6.81 14,7.5V10H14L17,10V14H14V22H10V14H7V10H10V6A4,4 0 0,1 14,2H17Z" />
   </symbol>
   <symbol id="twitter" viewBox="0 0 24 24">
      <path d="M22.46,6C21.69,6.35 20.86,6.58 20,6.69C20.88,6.16 21.56,5.32 21.88,4.31C21.05,4.81 20.13,5.16 19.16,5.36C18.37,4.5 17.26,4 16,4C13.65,4 11.73,5.92 11.73,8.29C11.73,8.63 11.77,8.96 11.84,9.27C8.28,9.09 5.11,7.38 3,4.79C2.63,5.42 2.42,6.16 2.42,6.94C2.42,8.43 3.17,9.75 4.33,10.5C3.62,10.5 2.96,10.3 2.38,10C2.38,10 2.38,10 2.38,10.03C2.38,12.11 3.86,13.85 5.82,14.24C5.46,14.34 5.08,14.39 4.69,14.39C4.42,14.39 4.15,14.36 3.89,14.31C4.43,16 6,17.26 7.89,17.29C6.43,18.45 4.58,19.13 2.56,19.13C2.22,19.13 1.88,19.11 1.54,19.07C3.44,20.29 5.7,21 8.12,21C16,21 20.33,14.46 20.33,8.79C20.33,8.6 20.33,8.42 20.32,8.23C21.16,7.63 21.88,6.87 22.46,6Z" />
   </symbol>
   <symbol id="pinterest" viewBox="0 0 24 24">
      <path d="M11.9 0C5.3 0 0 5.3 0 11.9c0 4.9 2.9 9 7.1 10.9 0-0.8 0-1.8 0.2-2.7 0.2-1 1.5-6.5 1.5-6.5s-0.4-0.8-0.4-1.9c0-1.8 1-3.1 2.3-3.1 1.1 0 1.6 0.8 1.6 1.8 0 1.1-0.7 2.7-1 4.2 -0.3 1.3 0.7 2.3 1.9 2.3 2.3 0 3.8-2.9 3.8-6.3 0-2.6-1.8-4.5-4.9-4.5 -3.6 0-5.8 2.7-5.8 5.7 0 1 0.3 1.8 0.8 2.3 0.2 0.3 0.3 0.4 0.2 0.7 -0.1 0.2-0.2 0.7-0.2 1C7 16 6.8 16.1 6.5 16c-1.7-0.7-2.4-2.5-2.4-4.5 0-3.4 2.8-7.4 8.5-7.4C17 4.2 20 7.5 20 11c0 4.7-2.6 8.1-6.4 8.1 -1.3 0-2.5-0.7-2.9-1.5 0 0-0.7 2.7-0.8 3.3 -0.3 0.9-0.7 1.8-1.2 2.5 1.1 0.3 2.2 0.5 3.4 0.5C18.7 23.8 24 18.5 24 12 23.7 5.3 18.4 0 11.9 0z" />
   </symbol>
</svg>
